o Button
v 0.5 0 -0.8
v -0.5 0 -0.8
v 0 0 0
v 0.8 0 0.5
v 0.8 0 -0.5
v -0.5 0 0.8
v 0.5 0 0.8
v -0.8 0 -0.5
v -0.8 0 0.5
v -0.625 0 -0.775
v -0.725 0 -0.725
v -0.775 0 -0.625
v -0.775 0 0.625
v -0.725 0 0.725
v -0.625 0 0.775
v 0.625 0 0.775
v 0.725 0 0.725
v 0.775 0 0.625
v 0.775 0 -0.625
v 0.725 0 -0.725
v 0.625 0 -0.775
v -0.794665809611447 -0.00218523992661943 -0.631747491690497
v -0.820689985253666 -0.00218523992661944 -0.50204871227606
v -0.814974328721121 -0.00936922129633501 -0.638715501990926
v -0.84205615167167 -0.00936922129633502 -0.504164379682113
v -0.833233768920043 -0.0211989246393278 -0.644980457436423
v -0.86126652520422 -0.0211989246393278 -0.506066581525242
v -0.8485081536695 -0.0370679608950162 -0.650221217222607
v -0.877336384593133 -0.0370679608950163 -0.507657811185437
v -0.860014519986345 -0.0561628853210923 -0.654169140681885
v -0.889441990928315 -0.0561628853210923 -0.508856502436492
v -0.867163053024061 -0.0775048945656135 -0.656621857769269
v -0.896962812397552 -0.0775048945656136 -0.509601210520194
v -0.869587319905374 -0.1 -0.657453642524659
v -0.899513332666807 -0.1 -0.509853761796664
v -0.73970157664652 -0.00218523992661943 -0.73970157664652
v -0.754883623873012 -0.009369221296335 -0.754883623873012
v -0.768533840411809 -0.0211989246393278 -0.768533840411809
v -0.779952517931796 -0.0370679608950162 -0.779952517931796
v -0.788554336502824 -0.0561628853210922 -0.788554336502824
v -0.793898368019482 -0.0775048945656135 -0.793898368019482
v -0.795710678118654 -0.1 -0.795710678118654
v -0.631747491690497 -0.00218523992661943 -0.794665809611447
v -0.638715501990926 -0.00936922129633501 -0.814974328721121
v -0.644980457436423 -0.0211989246393278 -0.833233768920043
v -0.650221217222607 -0.0370679608950162 -0.8485081536695
v -0.654169140681885 -0.0561628853210923 -0.860014519986345
v -0.656621857769269 -0.0775048945656135 -0.867163053024061
v -0.657453642524659 -0.1 -0.869587319905374
v -0.50204871227606 -0.00218523992661943 -0.820689985253666
v -0.504164379682113 -0.00936922129633501 -0.84205615167167
v -0.506066581525242 -0.0211989246393278 -0.86126652520422
v -0.507657811185437 -0.0370679608950163 -0.877336384593133
v -0.508856502436492 -0.0561628853210923 -0.889441990928315
v -0.509601210520194 -0.0775048945656135 -0.896962812397552
v -0.509853761796664 -0.1 -0.899513332666807
v 0.50204871227606 -0.00218523992661943 -0.820689985253666
v 0.504164379682113 -0.00936922129633501 -0.84205615167167
v 0.506066581525242 -0.0211989246393278 -0.86126652520422
v 0.507657811185437 -0.0370679608950163 -0.877336384593133
v 0.508856502436492 -0.0561628853210923 -0.889441990928315
v 0.509601210520194 -0.0775048945656135 -0.896962812397552
v 0.509853761796664 -0.1 -0.899513332666807
v 0.631747491690497 -0.00218523992661943 -0.794665809611447
v 0.638715501990926 -0.00936922129633501 -0.814974328721121
v 0.644980457436423 -0.0211989246393278 -0.833233768920043
v 0.650221217222607 -0.0370679608950162 -0.8485081536695
v 0.654169140681885 -0.0561628853210923 -0.860014519986345
v 0.656621857769269 -0.0775048945656135 -0.867163053024061
v 0.657453642524659 -0.1 -0.869587319905374
v 0.73970157664652 -0.00218523992661943 -0.73970157664652
v 0.754883623873012 -0.009369221296335 -0.754883623873012
v 0.768533840411809 -0.0211989246393278 -0.768533840411809
v 0.779952517931796 -0.0370679608950162 -0.779952517931796
v 0.788554336502824 -0.0561628853210922 -0.788554336502824
v 0.793898368019482 -0.0775048945656135 -0.793898368019482
v 0.795710678118654 -0.1 -0.795710678118654
v 0.794665809611447 -0.00218523992661943 -0.631747491690497
v 0.814974328721121 -0.00936922129633499 -0.638715501990926
v 0.833233768920043 -0.0211989246393278 -0.644980457436423
v 0.8485081536695 -0.0370679608950162 -0.650221217222607
v 0.860014519986345 -0.0561628853210922 -0.654169140681885
v 0.867163053024061 -0.0775048945656135 -0.656621857769269
v 0.869587319905374 -0.1 -0.657453642524659
v 0.820689985253666 -0.00218523992661944 -0.50204871227606
v 0.84205615167167 -0.00936922129633502 -0.504164379682113
v 0.86126652520422 -0.0211989246393278 -0.506066581525242
v 0.877336384593133 -0.0370679608950163 -0.507657811185437
v 0.889441990928315 -0.0561628853210923 -0.508856502436492
v 0.896962812397552 -0.0775048945656136 -0.509601210520194
v 0.899513332666807 -0.1 -0.509853761796664
v 0.820689985253666 -0.00218523992661944 0.50204871227606
v 0.84205615167167 -0.00936922129633502 0.504164379682113
v 0.86126652520422 -0.0211989246393278 0.506066581525242
v 0.877336384593133 -0.0370679608950163 0.507657811185437
v 0.889441990928315 -0.0561628853210923 0.508856502436492
v 0.896962812397552 -0.0775048945656136 0.509601210520194
v 0.899513332666807 -0.1 0.509853761796664
v 0.794665809611447 -0.00218523992661943 0.631747491690497
v 0.814974328721121 -0.00936922129633501 0.638715501990926
v 0.833233768920043 -0.0211989246393278 0.644980457436423
v 0.8485081536695 -0.0370679608950162 0.650221217222607
v 0.860014519986345 -0.0561628853210923 0.654169140681885
v 0.867163053024061 -0.0775048945656135 0.656621857769269
v 0.869587319905374 -0.1 0.657453642524659
v 0.73970157664652 -0.00218523992661943 0.73970157664652
v 0.754883623873012 -0.009369221296335 0.754883623873012
v 0.768533840411809 -0.0211989246393278 0.768533840411809
v 0.779952517931796 -0.0370679608950162 0.779952517931796
v 0.788554336502824 -0.0561628853210922 0.788554336502824
v 0.793898368019482 -0.0775048945656135 0.793898368019482
v 0.795710678118654 -0.1 0.795710678118654
v 0.631747491690497 -0.00218523992661943 0.794665809611447
v 0.638715501990926 -0.00936922129633501 0.814974328721121
v 0.644980457436423 -0.0211989246393278 0.833233768920043
v 0.650221217222607 -0.0370679608950162 0.8485081536695
v 0.654169140681885 -0.0561628853210923 0.860014519986345
v 0.656621857769269 -0.0775048945656135 0.867163053024061
v 0.657453642524659 -0.1 0.869587319905374
v 0.50204871227606 -0.00218523992661943 0.820689985253666
v 0.504164379682113 -0.00936922129633501 0.84205615167167
v 0.506066581525242 -0.0211989246393278 0.86126652520422
v 0.507657811185437 -0.0370679608950163 0.877336384593133
v 0.508856502436492 -0.0561628853210923 0.889441990928315
v 0.509601210520194 -0.0775048945656135 0.896962812397552
v 0.509853761796664 -0.1 0.899513332666807
v -0.50204871227606 -0.00218523992661943 0.820689985253666
v -0.504164379682113 -0.00936922129633501 0.84205615167167
v -0.506066581525242 -0.0211989246393278 0.86126652520422
v -0.507657811185437 -0.0370679608950163 0.877336384593133
v -0.508856502436492 -0.0561628853210923 0.889441990928315
v -0.509601210520194 -0.0775048945656135 0.896962812397552
v -0.509853761796664 -0.1 0.899513332666807
v -0.631747491690497 -0.00218523992661943 0.794665809611447
v -0.638715501990926 -0.00936922129633501 0.814974328721121
v -0.644980457436423 -0.0211989246393278 0.833233768920043
v -0.650221217222607 -0.0370679608950162 0.8485081536695
v -0.654169140681885 -0.0561628853210923 0.860014519986345
v -0.656621857769269 -0.0775048945656135 0.867163053024061
v -0.657453642524659 -0.1 0.869587319905374
v -0.73970157664652 -0.00218523992661943 0.73970157664652
v -0.754883623873012 -0.009369221296335 0.754883623873012
v -0.768533840411809 -0.0211989246393278 0.768533840411809
v -0.779952517931796 -0.0370679608950162 0.779952517931796
v -0.788554336502824 -0.0561628853210922 0.788554336502824
v -0.793898368019482 -0.0775048945656135 0.793898368019482
v -0.795710678118654 -0.1 0.795710678118654
v -0.794665809611447 -0.00218523992661943 0.631747491690497
v -0.814974328721121 -0.00936922129633499 0.638715501990926
v -0.833233768920043 -0.0211989246393278 0.644980457436423
v -0.8485081536695 -0.0370679608950162 0.650221217222607
v -0.860014519986345 -0.0561628853210922 0.654169140681885
v -0.867163053024061 -0.0775048945656135 0.656621857769269
v -0.869587319905374 -0.1 0.657453642524659
v -0.820689985253666 -0.00218523992661944 0.50204871227606
v -0.84205615167167 -0.00936922129633502 0.504164379682113
v -0.86126652520422 -0.0211989246393278 0.506066581525242
v -0.877336384593133 -0.0370679608950163 0.507657811185437
v -0.889441990928315 -0.0561628853210923 0.508856502436492
v -0.896962812397552 -0.0775048945656136 0.509601210520194
v -0.899513332666807 -0.1 0.509853761796664
vt 0.5 0.215
vt 0.3575 0.215
vt 0.5 0.5
vt 0.785 0.5
vt 0.785 0.3575
vt 0.5 0.785
vt 0.6425 0.785
vt 0.215 0.3575
vt 0.215 0.5
vt 0.28625 0.215
vt 0.215 0.215
vt 0.215 0.28625
vt 0.215 0.6425
vt 0.215 0.785
vt 0.3575 0.785
vt 0.71375 0.785
vt 0.785 0.785
vt 0.785 0.6425
vt 0.785 0.28625
vt 0.785 0.215
vt 0.6425 0.215
vn 0 1 0
vn 0 0.1 0
vn -0.020387418626612 0.0978147600733806 -0.00407748372532235
vn -0.0414411300657017 0.090630778703665 -0.00828822601314039
vn -0.0603705745471704 0.0788010753606722 -0.0120741149094341
vn -0.0762054311995947 0.0629320391049837 -0.0152410862399189
vn -0.0881340073227015 0.0438371146789077 -0.0176268014645403
vn -0.0955448456500112 0.0224951054343865 -0.0191089691300022
vn -0.098058067569092 0 -0.0196116135138182
vn -0.0185961869594171 0.0978147600733806 -0.00929809347970856
vn -0.0378001264714001 0.090630778703665 -0.0189000632357
vn -0.0550664363982393 0.0788010753606722 -0.0275332181991197
vn -0.0695100479302887 0.0629320391049838 -0.0347550239651444
vn -0.0803905834118813 0.0438371146789078 -0.0401952917059408
vn -0.0871503080040265 0.0224951054343865 -0.0435751540020134
vn -0.0894427190999916 6.93889390390723E-17 -0.0447213595499959
vn -0.00929809347970856 0.0978147600733806 -0.0185961869594171
vn -0.0189000632357 0.090630778703665 -0.0378001264714001
vn -0.0275332181991197 0.0788010753606723 -0.0550664363982394
vn -0.0347550239651445 0.0629320391049838 -0.0695100479302888
vn -0.0401952917059409 0.0438371146789078 -0.0803905834118813
vn -0.0435751540020135 0.0224951054343866 -0.0871503080040265
vn -0.044721359549996 1.2490009027033E-16 -0.0894427190999916
vn -0.00407748372532235 0.0978147600733806 -0.020387418626612
vn -0.00828822601314039 0.090630778703665 -0.0414411300657017
vn -0.0120741149094341 0.0788010753606722 -0.0603705745471703
vn -0.0152410862399189 0.0629320391049838 -0.0762054311995947
vn -0.0176268014645403 0.0438371146789077 -0.0881340073227014
vn -0.0191089691300023 0.0224951054343865 -0.0955448456500112
vn -0.0196116135138185 1.38777878078145E-17 -0.0980580675690919
vn 0 0.0978147600733806 -0.0207911690817759
vn 0 0.090630778703665 -0.0422618261740699
vn 0 0.0788010753606722 -0.0615661475325658
vn 0 0.0629320391049838 -0.0777145961456971
vn 0 0.0438371146789077 -0.0898794046299167
vn 0 0.0224951054343865 -0.0974370064785235
vn 0 1.38777878078145E-17 -0.0999999999999999
vn 0.00407748372532235 0.0978147600733806 -0.020387418626612
vn 0.00828822601314039 0.090630778703665 -0.0414411300657017
vn 0.0120741149094341 0.0788010753606722 -0.0603705745471704
vn 0.0152410862399189 0.0629320391049838 -0.0762054311995947
vn 0.0176268014645403 0.0438371146789077 -0.0881340073227015
vn 0.0191089691300022 0.0224951054343865 -0.0955448456500112
vn 0.0196116135138182 1.38777878078145E-17 -0.098058067569092
vn 0.00929809347970856 0.0978147600733806 -0.0185961869594171
vn 0.0189000632357 0.090630778703665 -0.0378001264714001
vn 0.0275332181991197 0.0788010753606723 -0.0550664363982392
vn 0.0347550239651444 0.0629320391049838 -0.0695100479302887
vn 0.0401952917059408 0.0438371146789078 -0.0803905834118813
vn 0.0435751540020134 0.0224951054343866 -0.0871503080040265
vn 0.0447213595499959 1.2490009027033E-16 -0.0894427190999915
vn 0.0185961869594171 0.0978147600733806 -0.00929809347970856
vn 0.0378001264714001 0.090630778703665 -0.0189000632357
vn 0.0550664363982394 0.0788010753606722 -0.0275332181991197
vn 0.0695100479302888 0.0629320391049838 -0.0347550239651445
vn 0.0803905834118813 0.0438371146789078 -0.0401952917059409
vn 0.0871503080040265 0.0224951054343865 -0.0435751540020135
vn 0.0894427190999916 6.93889390390723E-17 -0.044721359549996
vn 0.020387418626612 0.0978147600733806 -0.00407748372532235
vn 0.0414411300657017 0.090630778703665 -0.00828822601314039
vn 0.0603705745471703 0.0788010753606722 -0.0120741149094341
vn 0.0762054311995947 0.0629320391049837 -0.0152410862399189
vn 0.0881340073227014 0.0438371146789077 -0.0176268014645403
vn 0.0955448456500112 0.0224951054343865 -0.0191089691300023
vn 0.0980580675690919 0 -0.0196116135138185
vn 0.0207911690817759 0.0978147600733806 0
vn 0.0422618261740699 0.090630778703665 0
vn 0.0615661475325658 0.0788010753606722 0
vn 0.0777145961456971 0.0629320391049838 0
vn 0.0898794046299167 0.0438371146789077 0
vn 0.0974370064785235 0.0224951054343865 0
vn 0.0999999999999999 1.38777878078145E-17 0
vn 0.020387418626612 0.0978147600733806 0.00407748372532235
vn 0.0414411300657017 0.090630778703665 0.00828822601314039
vn 0.0603705745471704 0.0788010753606722 0.0120741149094341
vn 0.0762054311995947 0.0629320391049837 0.0152410862399189
vn 0.0881340073227015 0.0438371146789077 0.0176268014645403
vn 0.0955448456500112 0.0224951054343865 0.0191089691300022
vn 0.098058067569092 0 0.0196116135138182
vn 0.0185961869594171 0.0978147600733806 0.00929809347970856
vn 0.0378001264714001 0.090630778703665 0.0189000632357
vn 0.0550664363982393 0.0788010753606722 0.0275332181991197
vn 0.0695100479302887 0.0629320391049838 0.0347550239651444
vn 0.0803905834118813 0.0438371146789078 0.0401952917059408
vn 0.0871503080040265 0.0224951054343865 0.0435751540020134
vn 0.0894427190999916 6.93889390390723E-17 0.0447213595499959
vn 0.00929809347970856 0.0978147600733806 0.0185961869594171
vn 0.0189000632357 0.090630778703665 0.0378001264714001
vn 0.0275332181991197 0.0788010753606723 0.0550664363982394
vn 0.0347550239651445 0.0629320391049838 0.0695100479302888
vn 0.0401952917059409 0.0438371146789078 0.0803905834118813
vn 0.0435751540020135 0.0224951054343866 0.0871503080040265
vn 0.044721359549996 1.2490009027033E-16 0.0894427190999916
vn 0.00407748372532235 0.0978147600733806 0.020387418626612
vn 0.00828822601314039 0.090630778703665 0.0414411300657017
vn 0.0120741149094341 0.0788010753606722 0.0603705745471703
vn 0.0152410862399189 0.0629320391049838 0.0762054311995947
vn 0.0176268014645403 0.0438371146789077 0.0881340073227014
vn 0.0191089691300023 0.0224951054343865 0.0955448456500112
vn 0.0196116135138185 1.38777878078145E-17 0.0980580675690919
vn 0 0.0978147600733806 0.0207911690817759
vn 0 0.090630778703665 0.0422618261740699
vn 0 0.0788010753606722 0.0615661475325658
vn 0 0.0629320391049838 0.0777145961456971
vn 0 0.0438371146789077 0.0898794046299167
vn 0 0.0224951054343865 0.0974370064785235
vn 0 1.38777878078145E-17 0.0999999999999999
vn -0.00407748372532235 0.0978147600733806 0.020387418626612
vn -0.00828822601314039 0.090630778703665 0.0414411300657017
vn -0.0120741149094341 0.0788010753606722 0.0603705745471704
vn -0.0152410862399189 0.0629320391049838 0.0762054311995947
vn -0.0176268014645403 0.0438371146789077 0.0881340073227015
vn -0.0191089691300022 0.0224951054343865 0.0955448456500112
vn -0.0196116135138182 1.38777878078145E-17 0.098058067569092
vn -0.00929809347970856 0.0978147600733806 0.0185961869594171
vn -0.0189000632357 0.090630778703665 0.0378001264714001
vn -0.0275332181991197 0.0788010753606723 0.0550664363982392
vn -0.0347550239651444 0.0629320391049838 0.0695100479302887
vn -0.0401952917059408 0.0438371146789078 0.0803905834118813
vn -0.0435751540020134 0.0224951054343866 0.0871503080040265
vn -0.0447213595499959 1.2490009027033E-16 0.0894427190999915
vn -0.0185961869594171 0.0978147600733806 0.00929809347970856
vn -0.0378001264714001 0.090630778703665 0.0189000632357
vn -0.0550664363982394 0.0788010753606722 0.0275332181991197
vn -0.0695100479302888 0.0629320391049838 0.0347550239651445
vn -0.0803905834118813 0.0438371146789078 0.0401952917059409
vn -0.0871503080040265 0.0224951054343865 0.0435751540020135
vn -0.0894427190999916 6.93889390390723E-17 0.044721359549996
vn -0.020387418626612 0.0978147600733806 0.00407748372532235
vn -0.0414411300657017 0.090630778703665 0.00828822601314039
vn -0.0603705745471703 0.0788010753606722 0.0120741149094341
vn -0.0762054311995947 0.0629320391049837 0.0152410862399189
vn -0.0881340073227014 0.0438371146789077 0.0176268014645403
vn -0.0955448456500112 0.0224951054343865 0.0191089691300023
vn -0.0980580675690919 0 0.0196116135138185
vn -0.0207911690817759 0.0978147600733806 0
vn -0.0422618261740699 0.090630778703665 0
vn -0.0615661475325658 0.0788010753606722 0
vn -0.0777145961456971 0.0629320391049838 0
vn -0.0898794046299167 0.0438371146789077 0
vn -0.0974370064785235 0.0224951054343865 0
vn -0.0999999999999999 1.38777878078145E-17 0
g Button
f 1/1/1 2/2/1 3/3/1
f 4/4/1 5/5/1 3/3/1
f 6/6/1 7/7/1 3/3/1
f 8/8/1 9/9/1 3/3/1
f 10/10/1 11/11/1 3/3/1
f 3/3/1 2/2/1 10/10/1
f 3/3/1 11/11/1 12/12/1
f 12/12/1 8/8/1 3/3/1
f 13/13/1 14/14/1 3/3/1
f 3/3/1 9/9/1 13/13/1
f 3/3/1 14/14/1 15/15/1
f 15/15/1 6/6/1 3/3/1
f 16/16/1 17/17/1 3/3/1
f 3/3/1 7/7/1 16/16/1
f 3/3/1 17/17/1 18/18/1
f 18/18/1 4/4/1 3/3/1
f 19/19/1 20/20/1 3/3/1
f 3/3/1 5/5/1 19/19/1
f 3/3/1 20/20/1 21/21/1
f 21/21/1 1/1/1 3/3/1
f 8//2 12//2 22//3 23//3
f 23//3 22//3 24//4 25//4
f 25//4 24//4 26//5 27//5
f 27//5 26//5 28//6 29//6
f 29//6 28//6 30//7 31//7
f 31//7 30//7 32//8 33//8
f 33//8 32//8 34//9 35//9
f 35//9 34//9 34//9 35//9
f 12//2 11//2 36//10 22//10
f 22//10 36//10 37//11 24//11
f 24//11 37//11 38//12 26//12
f 26//12 38//12 39//13 28//13
f 28//13 39//13 40//14 30//14
f 30//14 40//14 41//15 32//15
f 32//15 41//15 42//16 34//16
f 34//16 42//16 42//16 34//16
f 11//2 10//2 43//17 36//17
f 36//17 43//17 44//18 37//18
f 37//18 44//18 45//19 38//19
f 38//19 45//19 46//20 39//20
f 39//20 46//20 47//21 40//21
f 40//21 47//21 48//22 41//22
f 41//22 48//22 49//23 42//23
f 42//23 49//23 49//23 42//23
f 10//2 2//2 50//24 43//24
f 43//24 50//24 51//25 44//25
f 44//25 51//25 52//26 45//26
f 45//26 52//26 53//27 46//27
f 46//27 53//27 54//28 47//28
f 47//28 54//28 55//29 48//29
f 48//29 55//29 56//30 49//30
f 49//30 56//30 56//30 49//30
f 2//2 1//2 57//31 50//31
f 50//31 57//31 58//32 51//32
f 51//32 58//32 59//33 52//33
f 52//33 59//33 60//34 53//34
f 53//34 60//34 61//35 54//35
f 54//35 61//35 62//36 55//36
f 55//36 62//36 63//37 56//37
f 56//37 63//37 63//37 56//37
f 1//2 21//2 64//38 57//38
f 57//38 64//38 65//39 58//39
f 58//39 65//39 66//40 59//40
f 59//40 66//40 67//41 60//41
f 60//41 67//41 68//42 61//42
f 61//42 68//42 69//43 62//43
f 62//43 69//43 70//44 63//44
f 63//44 70//44 70//44 63//44
f 21//2 20//2 71//45 64//45
f 64//45 71//45 72//46 65//46
f 65//46 72//46 73//47 66//47
f 66//47 73//47 74//48 67//48
f 67//48 74//48 75//49 68//49
f 68//49 75//49 76//50 69//50
f 69//50 76//50 77//51 70//51
f 70//51 77//51 77//51 70//51
f 20//2 19//2 78//52 71//52
f 71//52 78//52 79//53 72//53
f 72//53 79//53 80//54 73//54
f 73//54 80//54 81//55 74//55
f 74//55 81//55 82//56 75//56
f 75//56 82//56 83//57 76//57
f 76//57 83//57 84//58 77//58
f 77//58 84//58 84//58 77//58
f 19//2 5//2 85//59 78//59
f 78//59 85//59 86//60 79//60
f 79//60 86//60 87//61 80//61
f 80//61 87//61 88//62 81//62
f 81//62 88//62 89//63 82//63
f 82//63 89//63 90//64 83//64
f 83//64 90//64 91//65 84//65
f 84//65 91//65 91//65 84//65
f 5//2 4//2 92//66 85//66
f 85//66 92//66 93//67 86//67
f 86//67 93//67 94//68 87//68
f 87//68 94//68 95//69 88//69
f 88//69 95//69 96//70 89//70
f 89//70 96//70 97//71 90//71
f 90//71 97//71 98//72 91//72
f 91//72 98//72 98//72 91//72
f 4//2 18//2 99//73 92//73
f 92//73 99//73 100//74 93//74
f 93//74 100//74 101//75 94//75
f 94//75 101//75 102//76 95//76
f 95//76 102//76 103//77 96//77
f 96//77 103//77 104//78 97//78
f 97//78 104//78 105//79 98//79
f 98//79 105//79 105//79 98//79
f 18//2 17//2 106//80 99//80
f 99//80 106//80 107//81 100//81
f 100//81 107//81 108//82 101//82
f 101//82 108//82 109//83 102//83
f 102//83 109//83 110//84 103//84
f 103//84 110//84 111//85 104//85
f 104//85 111//85 112//86 105//86
f 105//86 112//86 112//86 105//86
f 17//2 16//2 113//87 106//87
f 106//87 113//87 114//88 107//88
f 107//88 114//88 115//89 108//89
f 108//89 115//89 116//90 109//90
f 109//90 116//90 117//91 110//91
f 110//91 117//91 118//92 111//92
f 111//92 118//92 119//93 112//93
f 112//93 119//93 119//93 112//93
f 16//2 7//2 120//94 113//94
f 113//94 120//94 121//95 114//95
f 114//95 121//95 122//96 115//96
f 115//96 122//96 123//97 116//97
f 116//97 123//97 124//98 117//98
f 117//98 124//98 125//99 118//99
f 118//99 125//99 126//100 119//100
f 119//100 126//100 126//100 119//100
f 7//2 6//2 127//101 120//101
f 120//101 127//101 128//102 121//102
f 121//102 128//102 129//103 122//103
f 122//103 129//103 130//104 123//104
f 123//104 130//104 131//105 124//105
f 124//105 131//105 132//106 125//106
f 125//106 132//106 133//107 126//107
f 126//107 133//107 133//107 126//107
f 6//2 15//2 134//108 127//108
f 127//108 134//108 135//109 128//109
f 128//109 135//109 136//110 129//110
f 129//110 136//110 137//111 130//111
f 130//111 137//111 138//112 131//112
f 131//112 138//112 139//113 132//113
f 132//113 139//113 140//114 133//114
f 133//114 140//114 140//114 133//114
f 15//2 14//2 141//115 134//115
f 134//115 141//115 142//116 135//116
f 135//116 142//116 143//117 136//117
f 136//117 143//117 144//118 137//118
f 137//118 144//118 145//119 138//119
f 138//119 145//119 146//120 139//120
f 139//120 146//120 147//121 140//121
f 140//121 147//121 147//121 140//121
f 14//2 13//2 148//122 141//122
f 141//122 148//122 149//123 142//123
f 142//123 149//123 150//124 143//124
f 143//124 150//124 151//125 144//125
f 144//125 151//125 152//126 145//126
f 145//126 152//126 153//127 146//127
f 146//127 153//127 154//128 147//128
f 147//128 154//128 154//128 147//128
f 13//2 9//2 155//129 148//129
f 148//129 155//129 156//130 149//130
f 149//130 156//130 157//131 150//131
f 150//131 157//131 158//132 151//132
f 151//132 158//132 159//133 152//133
f 152//133 159//133 160//134 153//134
f 153//134 160//134 161//135 154//135
f 154//135 161//135 161//135 154//135
f 9//2 8//2 23//136 155//136
f 155//136 23//136 25//137 156//137
f 156//137 25//137 27//138 157//138
f 157//138 27//138 29//139 158//139
f 158//139 29//139 31//140 159//140
f 159//140 31//140 33//141 160//141
f 160//141 33//141 35//142 161//142
f 161//142 35//142 35//142 161//142
#h 
