o Button
v -0.86126652520422 -0.0211989246393278 -0.506066581525242
v -0.833233768920043 -0.0211989246393278 -0.644980457436423
v -0.814974328721121 -0.00936922129633501 -0.638715501990926
v -0.84205615167167 -0.00936922129633502 -0.504164379682113
v -0.877336384593133 -0.0370679608950163 -0.507657811185437
v -0.8485081536695 -0.0370679608950162 -0.650221217222607
v -0.889441990928315 -0.0561628853210923 -0.508856502436492
v -0.860014519986345 -0.0561628853210923 -0.654169140681885
v -0.896962812397552 -0.0775048945656136 -0.509601210520194
v -0.867163053024061 -0.0775048945656135 -0.656621857769269
v -0.899513332666807 -0.1 -0.509853761796664
v -0.869587319905374 -0.1 -0.657453642524659
v -0.768533840411809 -0.0211989246393278 -0.768533840411809
v -0.754883623873012 -0.009369221296335 -0.754883623873012
v -0.779952517931796 -0.0370679608950162 -0.779952517931796
v -0.788554336502824 -0.0561628853210922 -0.788554336502824
v -0.793898368019482 -0.0775048945656135 -0.793898368019482
v -0.795710678118654 -0.1 -0.795710678118654
v -0.644980457436423 -0.0211989246393278 -0.833233768920043
v -0.638715501990926 -0.00936922129633501 -0.814974328721121
v -0.650221217222607 -0.0370679608950162 -0.8485081536695
v -0.654169140681885 -0.0561628853210923 -0.860014519986345
v -0.656621857769269 -0.0775048945656135 -0.867163053024061
v -0.657453642524659 -0.1 -0.869587319905374
v -0.506066581525242 -0.0211989246393278 -0.86126652520422
v -0.504164379682113 -0.00936922129633501 -0.84205615167167
v -0.507657811185437 -0.0370679608950163 -0.877336384593133
v -0.508856502436492 -0.0561628853210923 -0.889441990928315
v -0.509601210520194 -0.0775048945656135 -0.896962812397552
v -0.509853761796664 -0.1 -0.899513332666807
v 0.506066581525242 -0.0211989246393278 -0.86126652520422
v 0.504164379682113 -0.00936922129633501 -0.84205615167167
v 0.507657811185437 -0.0370679608950163 -0.877336384593133
v 0.508856502436492 -0.0561628853210923 -0.889441990928315
v 0.509601210520194 -0.0775048945656135 -0.896962812397552
v 0.509853761796664 -0.1 -0.899513332666807
v 0.644980457436423 -0.0211989246393278 -0.833233768920043
v 0.638715501990926 -0.00936922129633501 -0.814974328721121
v 0.650221217222607 -0.0370679608950162 -0.8485081536695
v 0.654169140681885 -0.0561628853210923 -0.860014519986345
v 0.656621857769269 -0.0775048945656135 -0.867163053024061
v 0.657453642524659 -0.1 -0.869587319905374
v 0.768533840411809 -0.0211989246393278 -0.768533840411809
v 0.754883623873012 -0.009369221296335 -0.754883623873012
v 0.779952517931796 -0.0370679608950162 -0.779952517931796
v 0.788554336502824 -0.0561628853210922 -0.788554336502824
v 0.793898368019482 -0.0775048945656135 -0.793898368019482
v 0.795710678118654 -0.1 -0.795710678118654
v 0.833233768920043 -0.0211989246393278 -0.644980457436423
v 0.814974328721121 -0.00936922129633499 -0.638715501990926
v 0.8485081536695 -0.0370679608950162 -0.650221217222607
v 0.860014519986345 -0.0561628853210922 -0.654169140681885
v 0.867163053024061 -0.0775048945656135 -0.656621857769269
v 0.869587319905374 -0.1 -0.657453642524659
v 0.86126652520422 -0.0211989246393278 -0.506066581525242
v 0.84205615167167 -0.00936922129633502 -0.504164379682113
v 0.877336384593133 -0.0370679608950163 -0.507657811185437
v 0.889441990928315 -0.0561628853210923 -0.508856502436492
v 0.896962812397552 -0.0775048945656136 -0.509601210520194
v 0.899513332666807 -0.1 -0.509853761796664
v 0.86126652520422 -0.0211989246393278 0.506066581525242
v 0.84205615167167 -0.00936922129633502 0.504164379682113
v 0.877336384593133 -0.0370679608950163 0.507657811185437
v 0.889441990928315 -0.0561628853210923 0.508856502436492
v 0.896962812397552 -0.0775048945656136 0.509601210520194
v 0.899513332666807 -0.1 0.509853761796664
v 0.833233768920043 -0.0211989246393278 0.644980457436423
v 0.814974328721121 -0.00936922129633501 0.638715501990926
v 0.8485081536695 -0.0370679608950162 0.650221217222607
v 0.860014519986345 -0.0561628853210923 0.654169140681885
v 0.867163053024061 -0.0775048945656135 0.656621857769269
v 0.869587319905374 -0.1 0.657453642524659
v 0.768533840411809 -0.0211989246393278 0.768533840411809
v 0.754883623873012 -0.009369221296335 0.754883623873012
v 0.779952517931796 -0.0370679608950162 0.779952517931796
v 0.788554336502824 -0.0561628853210922 0.788554336502824
v 0.793898368019482 -0.0775048945656135 0.793898368019482
v 0.795710678118654 -0.1 0.795710678118654
v 0.644980457436423 -0.0211989246393278 0.833233768920043
v 0.638715501990926 -0.00936922129633501 0.814974328721121
v 0.650221217222607 -0.0370679608950162 0.8485081536695
v 0.654169140681885 -0.0561628853210923 0.860014519986345
v 0.656621857769269 -0.0775048945656135 0.867163053024061
v 0.657453642524659 -0.1 0.869587319905374
v 0.506066581525242 -0.0211989246393278 0.86126652520422
v 0.504164379682113 -0.00936922129633501 0.84205615167167
v 0.507657811185437 -0.0370679608950163 0.877336384593133
v 0.508856502436492 -0.0561628853210923 0.889441990928315
v 0.509601210520194 -0.0775048945656135 0.896962812397552
v 0.509853761796664 -0.1 0.899513332666807
v -0.506066581525242 -0.0211989246393278 0.86126652520422
v -0.504164379682113 -0.00936922129633501 0.84205615167167
v -0.507657811185437 -0.0370679608950163 0.877336384593133
v -0.508856502436492 -0.0561628853210923 0.889441990928315
v -0.509601210520194 -0.0775048945656135 0.896962812397552
v -0.509853761796664 -0.1 0.899513332666807
v -0.644980457436423 -0.0211989246393278 0.833233768920043
v -0.638715501990926 -0.00936922129633501 0.814974328721121
v -0.650221217222607 -0.0370679608950162 0.8485081536695
v -0.654169140681885 -0.0561628853210923 0.860014519986345
v -0.656621857769269 -0.0775048945656135 0.867163053024061
v -0.657453642524659 -0.1 0.869587319905374
v -0.768533840411809 -0.0211989246393278 0.768533840411809
v -0.754883623873012 -0.009369221296335 0.754883623873012
v -0.779952517931796 -0.0370679608950162 0.779952517931796
v -0.788554336502824 -0.0561628853210922 0.788554336502824
v -0.793898368019482 -0.0775048945656135 0.793898368019482
v -0.795710678118654 -0.1 0.795710678118654
v -0.833233768920043 -0.0211989246393278 0.644980457436423
v -0.814974328721121 -0.00936922129633499 0.638715501990926
v -0.8485081536695 -0.0370679608950162 0.650221217222607
v -0.860014519986345 -0.0561628853210922 0.654169140681885
v -0.867163053024061 -0.0775048945656135 0.656621857769269
v -0.869587319905374 -0.1 0.657453642524659
v -0.86126652520422 -0.0211989246393278 0.506066581525242
v -0.84205615167167 -0.00936922129633502 0.504164379682113
v -0.877336384593133 -0.0370679608950163 0.507657811185437
v -0.889441990928315 -0.0561628853210923 0.508856502436492
v -0.896962812397552 -0.0775048945656136 0.509601210520194
v -0.899513332666807 -0.1 0.509853761796664
vn 0.0603705745471704 -0.0788010753606722 0.0120741149094341
vn 0.0414411300657017 -0.090630778703665 0.00828822601314039
vn 0.0762054311995947 -0.0629320391049837 0.0152410862399189
vn 0.0881340073227015 -0.0438371146789077 0.0176268014645403
vn 0.0955448456500112 -0.0224951054343865 0.0191089691300022
vn 0.098058067569092 0 0.0196116135138182
vn 0.0550664363982393 -0.0788010753606722 0.0275332181991197
vn 0.0378001264714001 -0.090630778703665 0.0189000632357
vn 0.0695100479302887 -0.0629320391049838 0.0347550239651444
vn 0.0803905834118813 -0.0438371146789078 0.0401952917059408
vn 0.0871503080040265 -0.0224951054343865 0.0435751540020134
vn 0.0894427190999916 -6.93889390390723E-17 0.0447213595499959
vn 0.0275332181991197 -0.0788010753606723 0.0550664363982394
vn 0.0189000632357 -0.090630778703665 0.0378001264714001
vn 0.0347550239651445 -0.0629320391049838 0.0695100479302888
vn 0.0401952917059409 -0.0438371146789078 0.0803905834118813
vn 0.0435751540020135 -0.0224951054343866 0.0871503080040265
vn 0.044721359549996 -1.2490009027033E-16 0.0894427190999916
vn 0.0120741149094341 -0.0788010753606722 0.0603705745471703
vn 0.00828822601314039 -0.090630778703665 0.0414411300657017
vn 0.0152410862399189 -0.0629320391049838 0.0762054311995947
vn 0.0176268014645403 -0.0438371146789077 0.0881340073227014
vn 0.0191089691300023 -0.0224951054343865 0.0955448456500112
vn 0.0196116135138185 -1.38777878078145E-17 0.0980580675690919
vn 0 -0.0788010753606722 0.0615661475325658
vn 0 -0.090630778703665 0.0422618261740699
vn 0 -0.0629320391049838 0.0777145961456971
vn 0 -0.0438371146789077 0.0898794046299167
vn 0 -0.0224951054343865 0.0974370064785235
vn 0 -1.38777878078145E-17 0.0999999999999999
vn -0.0120741149094341 -0.0788010753606722 0.0603705745471704
vn -0.00828822601314039 -0.090630778703665 0.0414411300657017
vn -0.0152410862399189 -0.0629320391049838 0.0762054311995947
vn -0.0176268014645403 -0.0438371146789077 0.0881340073227015
vn -0.0191089691300022 -0.0224951054343865 0.0955448456500112
vn -0.0196116135138182 -1.38777878078145E-17 0.098058067569092
vn -0.0275332181991197 -0.0788010753606723 0.0550664363982392
vn -0.0189000632357 -0.090630778703665 0.0378001264714001
vn -0.0347550239651444 -0.0629320391049838 0.0695100479302887
vn -0.0401952917059408 -0.0438371146789078 0.0803905834118813
vn -0.0435751540020134 -0.0224951054343866 0.0871503080040265
vn -0.0447213595499959 -1.2490009027033E-16 0.0894427190999915
vn -0.0550664363982394 -0.0788010753606722 0.0275332181991197
vn -0.0378001264714001 -0.090630778703665 0.0189000632357
vn -0.0695100479302888 -0.0629320391049838 0.0347550239651445
vn -0.0803905834118813 -0.0438371146789078 0.0401952917059409
vn -0.0871503080040265 -0.0224951054343865 0.0435751540020135
vn -0.0894427190999916 -6.93889390390723E-17 0.044721359549996
vn -0.0603705745471703 -0.0788010753606722 0.0120741149094341
vn -0.0414411300657017 -0.090630778703665 0.00828822601314039
vn -0.0762054311995947 -0.0629320391049837 0.0152410862399189
vn -0.0881340073227014 -0.0438371146789077 0.0176268014645403
vn -0.0955448456500112 -0.0224951054343865 0.0191089691300023
vn -0.0980580675690919 0 0.0196116135138185
vn -0.0615661475325658 -0.0788010753606722 0
vn -0.0422618261740699 -0.090630778703665 0
vn -0.0777145961456971 -0.0629320391049838 0
vn -0.0898794046299167 -0.0438371146789077 0
vn -0.0974370064785235 -0.0224951054343865 0
vn -0.0999999999999999 -1.38777878078145E-17 0
vn -0.0603705745471704 -0.0788010753606722 -0.0120741149094341
vn -0.0414411300657017 -0.090630778703665 -0.00828822601314039
vn -0.0762054311995947 -0.0629320391049837 -0.0152410862399189
vn -0.0881340073227015 -0.0438371146789077 -0.0176268014645403
vn -0.0955448456500112 -0.0224951054343865 -0.0191089691300022
vn -0.098058067569092 0 -0.0196116135138182
vn -0.0550664363982393 -0.0788010753606722 -0.0275332181991197
vn -0.0378001264714001 -0.090630778703665 -0.0189000632357
vn -0.0695100479302887 -0.0629320391049838 -0.0347550239651444
vn -0.0803905834118813 -0.0438371146789078 -0.0401952917059408
vn -0.0871503080040265 -0.0224951054343865 -0.0435751540020134
vn -0.0894427190999916 -6.93889390390723E-17 -0.0447213595499959
vn -0.0275332181991197 -0.0788010753606723 -0.0550664363982394
vn -0.0189000632357 -0.090630778703665 -0.0378001264714001
vn -0.0347550239651445 -0.0629320391049838 -0.0695100479302888
vn -0.0401952917059409 -0.0438371146789078 -0.0803905834118813
vn -0.0435751540020135 -0.0224951054343866 -0.0871503080040265
vn -0.044721359549996 -1.2490009027033E-16 -0.0894427190999916
vn -0.0120741149094341 -0.0788010753606722 -0.0603705745471703
vn -0.00828822601314039 -0.090630778703665 -0.0414411300657017
vn -0.0152410862399189 -0.0629320391049838 -0.0762054311995947
vn -0.0176268014645403 -0.0438371146789077 -0.0881340073227014
vn -0.0191089691300023 -0.0224951054343865 -0.0955448456500112
vn -0.0196116135138185 -1.38777878078145E-17 -0.0980580675690919
vn 0 -0.0788010753606722 -0.0615661475325658
vn 0 -0.090630778703665 -0.0422618261740699
vn 0 -0.0629320391049838 -0.0777145961456971
vn 0 -0.0438371146789077 -0.0898794046299167
vn 0 -0.0224951054343865 -0.0974370064785235
vn 0 -1.38777878078145E-17 -0.0999999999999999
vn 0.0120741149094341 -0.0788010753606722 -0.0603705745471704
vn 0.00828822601314039 -0.090630778703665 -0.0414411300657017
vn 0.0152410862399189 -0.0629320391049838 -0.0762054311995947
vn 0.0176268014645403 -0.0438371146789077 -0.0881340073227015
vn 0.0191089691300022 -0.0224951054343865 -0.0955448456500112
vn 0.0196116135138182 -1.38777878078145E-17 -0.098058067569092
vn 0.0275332181991197 -0.0788010753606723 -0.0550664363982392
vn 0.0189000632357 -0.090630778703665 -0.0378001264714001
vn 0.0347550239651444 -0.0629320391049838 -0.0695100479302887
vn 0.0401952917059408 -0.0438371146789078 -0.0803905834118813
vn 0.0435751540020134 -0.0224951054343866 -0.0871503080040265
vn 0.0447213595499959 -1.2490009027033E-16 -0.0894427190999915
vn 0.0550664363982394 -0.0788010753606722 -0.0275332181991197
vn 0.0378001264714001 -0.090630778703665 -0.0189000632357
vn 0.0695100479302888 -0.0629320391049838 -0.0347550239651445
vn 0.0803905834118813 -0.0438371146789078 -0.0401952917059409
vn 0.0871503080040265 -0.0224951054343865 -0.0435751540020135
vn 0.0894427190999916 -6.93889390390723E-17 -0.044721359549996
vn 0.0603705745471703 -0.0788010753606722 -0.0120741149094341
vn 0.0414411300657017 -0.090630778703665 -0.00828822601314039
vn 0.0762054311995947 -0.0629320391049837 -0.0152410862399189
vn 0.0881340073227014 -0.0438371146789077 -0.0176268014645403
vn 0.0955448456500112 -0.0224951054343865 -0.0191089691300023
vn 0.0980580675690919 0 -0.0196116135138185
vn 0.0615661475325658 -0.0788010753606722 0
vn 0.0422618261740699 -0.090630778703665 0
vn 0.0777145961456971 -0.0629320391049838 0
vn 0.0898794046299167 -0.0438371146789077 0
vn 0.0974370064785235 -0.0224951054343865 0
vn 0.0999999999999999 -1.38777878078145E-17 0
g Button
f 1//1 2//1 3//2 4//2
f 5//3 6//3 2//1 1//1
f 7//4 8//4 6//3 5//3
f 9//5 10//5 8//4 7//4
f 11//6 12//6 10//5 9//5
f 11//6 12//6 12//6 11//6
f 2//7 13//7 14//8 3//8
f 6//9 15//9 13//7 2//7
f 8//10 16//10 15//9 6//9
f 10//11 17//11 16//10 8//10
f 12//12 18//12 17//11 10//11
f 12//12 18//12 18//12 12//12
f 13//13 19//13 20//14 14//14
f 15//15 21//15 19//13 13//13
f 16//16 22//16 21//15 15//15
f 17//17 23//17 22//16 16//16
f 18//18 24//18 23//17 17//17
f 18//18 24//18 24//18 18//18
f 19//19 25//19 26//20 20//20
f 21//21 27//21 25//19 19//19
f 22//22 28//22 27//21 21//21
f 23//23 29//23 28//22 22//22
f 24//24 30//24 29//23 23//23
f 24//24 30//24 30//24 24//24
f 25//25 31//25 32//26 26//26
f 27//27 33//27 31//25 25//25
f 28//28 34//28 33//27 27//27
f 29//29 35//29 34//28 28//28
f 30//30 36//30 35//29 29//29
f 30//30 36//30 36//30 30//30
f 31//31 37//31 38//32 32//32
f 33//33 39//33 37//31 31//31
f 34//34 40//34 39//33 33//33
f 35//35 41//35 40//34 34//34
f 36//36 42//36 41//35 35//35
f 36//36 42//36 42//36 36//36
f 37//37 43//37 44//38 38//38
f 39//39 45//39 43//37 37//37
f 40//40 46//40 45//39 39//39
f 41//41 47//41 46//40 40//40
f 42//42 48//42 47//41 41//41
f 42//42 48//42 48//42 42//42
f 43//43 49//43 50//44 44//44
f 45//45 51//45 49//43 43//43
f 46//46 52//46 51//45 45//45
f 47//47 53//47 52//46 46//46
f 48//48 54//48 53//47 47//47
f 48//48 54//48 54//48 48//48
f 49//49 55//49 56//50 50//50
f 51//51 57//51 55//49 49//49
f 52//52 58//52 57//51 51//51
f 53//53 59//53 58//52 52//52
f 54//54 60//54 59//53 53//53
f 54//54 60//54 60//54 54//54
f 55//55 61//55 62//56 56//56
f 57//57 63//57 61//55 55//55
f 58//58 64//58 63//57 57//57
f 59//59 65//59 64//58 58//58
f 60//60 66//60 65//59 59//59
f 60//60 66//60 66//60 60//60
f 61//61 67//61 68//62 62//62
f 63//63 69//63 67//61 61//61
f 64//64 70//64 69//63 63//63
f 65//65 71//65 70//64 64//64
f 66//66 72//66 71//65 65//65
f 66//66 72//66 72//66 66//66
f 67//67 73//67 74//68 68//68
f 69//69 75//69 73//67 67//67
f 70//70 76//70 75//69 69//69
f 71//71 77//71 76//70 70//70
f 72//72 78//72 77//71 71//71
f 72//72 78//72 78//72 72//72
f 73//73 79//73 80//74 74//74
f 75//75 81//75 79//73 73//73
f 76//76 82//76 81//75 75//75
f 77//77 83//77 82//76 76//76
f 78//78 84//78 83//77 77//77
f 78//78 84//78 84//78 78//78
f 79//79 85//79 86//80 80//80
f 81//81 87//81 85//79 79//79
f 82//82 88//82 87//81 81//81
f 83//83 89//83 88//82 82//82
f 84//84 90//84 89//83 83//83
f 84//84 90//84 90//84 84//84
f 85//85 91//85 92//86 86//86
f 87//87 93//87 91//85 85//85
f 88//88 94//88 93//87 87//87
f 89//89 95//89 94//88 88//88
f 90//90 96//90 95//89 89//89
f 90//90 96//90 96//90 90//90
f 91//91 97//91 98//92 92//92
f 93//93 99//93 97//91 91//91
f 94//94 100//94 99//93 93//93
f 95//95 101//95 100//94 94//94
f 96//96 102//96 101//95 95//95
f 96//96 102//96 102//96 96//96
f 97//97 103//97 104//98 98//98
f 99//99 105//99 103//97 97//97
f 100//100 106//100 105//99 99//99
f 101//101 107//101 106//100 100//100
f 102//102 108//102 107//101 101//101
f 102//102 108//102 108//102 102//102
f 103//103 109//103 110//104 104//104
f 105//105 111//105 109//103 103//103
f 106//106 112//106 111//105 105//105
f 107//107 113//107 112//106 106//106
f 108//108 114//108 113//107 107//107
f 108//108 114//108 114//108 108//108
f 109//109 115//109 116//110 110//110
f 111//111 117//111 115//109 109//109
f 112//112 118//112 117//111 111//111
f 113//113 119//113 118//112 112//112
f 114//114 120//114 119//113 113//113
f 114//114 120//114 120//114 114//114
f 115//115 1//115 4//116 116//116
f 117//117 5//117 1//115 115//115
f 118//118 7//118 5//117 117//117
f 119//119 9//119 7//118 118//118
f 120//120 11//120 9//119 119//119
f 120//120 11//120 11//120 120//120
#h 
