<?xml version="1.0" encoding="UTF-8" standalone="no"?>
<svg
   xmlns:dc="http://purl.org/dc/elements/1.1/"
   xmlns:cc="http://creativecommons.org/ns#"
   xmlns:rdf="http://www.w3.org/1999/02/22-rdf-syntax-ns#"
   xmlns:svg="http://www.w3.org/2000/svg"
   xmlns="http://www.w3.org/2000/svg"
   xmlns:sodipodi="http://sodipodi.sourceforge.net/DTD/sodipodi-0.dtd"
   xmlns:inkscape="http://www.inkscape.org/namespaces/inkscape"
   fill="none"
   viewBox="0 0 348 348"
   version="1.1"
   id="svg56"
   sodipodi:docname="Encryption Lingo.svg"
   inkscape:version="1.0.2-2 (e86c870879, 2021-01-15)">
  <metadata
     id="metadata7">
    <rdf:RDF>
      <cc:Work
         rdf:about="">
        <dc:format>image/svg+xml</dc:format>
        <dc:type
           rdf:resource="http://purl.org/dc/dcmitype/StillImage" />
        <dc:title></dc:title>
      </cc:Work>
    </rdf:RDF>
  </metadata>
  <defs
     id="defs60" />
  <sodipodi:namedview
     id="namedview58"
     pagecolor="#ffffff"
     bordercolor="#666666"
     borderopacity="1.0"
     inkscape:pageshadow="2"
     inkscape:pageopacity="0.0"
     inkscape:pagecheckerboard="0"
     showgrid="true"
     inkscape:zoom="1.6905541"
     inkscape:cx="122.12854"
     inkscape:cy="149.79341"
     inkscape:window-width="1920"
     inkscape:window-height="1017"
     inkscape:window-x="1272"
     inkscape:window-y="-8"
     inkscape:window-maximized="1"
     inkscape:current-layer="svg56"
     inkscape:document-rotation="0">
    <inkscape:grid
       type="xygrid"
       id="grid832"
       spacingx="10"
       spacingy="10" />
  </sodipodi:namedview>
  <path
     stroke="#000"
     stroke-width="2"
     d="M5.08 5.78h336.91v337.67H5.08z"
     id="path2" />
  <path
     stroke="#000"
     stroke-width="2"
     d="M282.73 40.55c0-8.37 6.97-15.16 15.56-15.16 4.13 0 8.09 1.6 11 4.44a14.97 14.97 0 014.56 10.72c0 8.38-6.96 15.17-15.56 15.17-8.59 0-15.56-6.8-15.56-15.17z"
     id="path4" />
  <path
     id="path856"
     style="fill:#000000;fill-opacity:1;fill-rule:evenodd;stroke:none;stroke-width:3.45;stroke-linecap:butt;stroke-linejoin:miter;stroke-miterlimit:4;stroke-dasharray:none;stroke-opacity:1;stop-color:#000000"
     d="M 43,54.5 54.5,66 66,54.5 54.5,43 Z M 31.5,43 V 77.5 H 66 L 77.5,66 V 31.5 H 43 Z" />
  <path
     style="fill:#000000;fill-opacity:1;fill-rule:evenodd;stroke:none;stroke-width:3.45;stroke-linecap:butt;stroke-linejoin:miter;stroke-miterlimit:4;stroke-dasharray:none;stroke-opacity:1;stop-color:#000000"
     d="m 112,66 11.5,11.5 H 158 V 43 L 146.5,31.5 135,43 146.5,54.5 V 66 H 135 L 123.5,54.5 Z"
     id="path863" />
  <path
     style="fill:#000000;fill-opacity:1;fill-rule:evenodd;stroke:none;stroke-width:3.45;stroke-linecap:butt;stroke-linejoin:miter;stroke-miterlimit:4;stroke-dasharray:none;stroke-opacity:1;stop-color:#000000"
     d="M 192.5,31.5 V 43 L 204,54.5 192.5,66 V 77.5 H 204 L 215.5,66 227,77.5 h 11.5 V 66 L 227,54.5 238.5,43 V 31.5 Z"
     id="path865" />
  <path
     id="path869"
     style="fill:#000000;fill-opacity:1;fill-rule:evenodd;stroke:none;stroke-width:3.45;stroke-linecap:butt;stroke-linejoin:miter;stroke-miterlimit:4;stroke-dasharray:none;stroke-opacity:1;stop-color:#000000"
     d="M 54.5,123.5 66,135 54.5,146.5 H 43 V 135 Z m -23,34.5 v -34.5 c 0,0 11.5,-11.5 11.5,-11.5 0,0 23,0 23,0 0,0 11.5,11.5 11.5,11.5 v 23 L 66,158 Z" />
  <path
     style="fill:#000000;fill-opacity:1;fill-rule:evenodd;stroke:none;stroke-width:3.45;stroke-linecap:butt;stroke-linejoin:miter;stroke-miterlimit:4;stroke-dasharray:none;stroke-opacity:1;stop-color:#000000"
     d="M 112,192.5 V 227 l 11.5,11.5 23,-23 v 23 H 158 V 204 l -11.5,-11.5 c 0,0 -23,23 -23,23 v -23 z"
     id="path872" />
  <path
     style="fill:#000000;fill-opacity:1;fill-rule:evenodd;stroke:none;stroke-width:3.45;stroke-linecap:butt;stroke-linejoin:miter;stroke-miterlimit:4;stroke-dasharray:none;stroke-opacity:1;stop-color:#000000"
     d="m 112,112 v 11.5 L 123.5,135 112,146.5 V 158 h 11.5 L 135,146.5 146.5,158 H 158 V 146.5 L 146.5,135 158,123.5 V 112 Z"
     id="path874" />
  <path
     id="path876"
     style="fill:#000000;fill-opacity:1;fill-rule:evenodd;stroke:none;stroke-width:3.45;stroke-linecap:butt;stroke-linejoin:miter;stroke-miterlimit:4;stroke-dasharray:none;stroke-opacity:1;stop-color:#000000"
     d="M 215.5,123.5 227,135 215.5,146.5 H 204 V 135 Z m -23,34.5 v -34.5 c 0,0 11.5,-11.5 11.5,-11.5 0,0 23,0 23,0 0,0 11.5,11.5 11.5,11.5 v 23 L 227,158 Z" />
  <path
     style="fill:#000000;fill-opacity:1;fill-rule:evenodd;stroke:none;stroke-width:3.45;stroke-linecap:butt;stroke-linejoin:miter;stroke-miterlimit:4;stroke-dasharray:none;stroke-opacity:1;stop-color:#000000"
     d="M 31.5,192.5 V 204 L 43,215.5 31.5,227 v 11.5 H 43 L 54.5,227 66,238.5 H 77.5 V 227 L 66,215.5 77.5,204 v -11.5 z"
     id="path878" />
  <rect
     style="fill:none;fill-opacity:1;fill-rule:evenodd;stroke:#000000;stroke-width:2.3;stroke-linecap:round;stroke-linejoin:round;stroke-miterlimit:4;stroke-dasharray:none;stroke-opacity:1;stop-color:#000000"
     id="rect880"
     width="69"
     height="69"
     x="20"
     y="20" />
  <rect
     style="fill:none;fill-opacity:1;fill-rule:evenodd;stroke:#000000;stroke-width:2.3;stroke-linecap:round;stroke-linejoin:round;stroke-miterlimit:4;stroke-dasharray:none;stroke-opacity:1;stop-color:#000000"
     id="rect882"
     width="69"
     height="69"
     x="100.5"
     y="20" />
  <rect
     style="fill:none;fill-opacity:1;fill-rule:evenodd;stroke:#000000;stroke-width:2.3;stroke-linecap:round;stroke-linejoin:round;stroke-miterlimit:4;stroke-dasharray:none;stroke-opacity:1;stop-color:#000000"
     id="rect884"
     width="69"
     height="69"
     x="181"
     y="20" />
  <rect
     style="fill:none;fill-opacity:1;fill-rule:evenodd;stroke:#000000;stroke-width:2.3;stroke-linecap:round;stroke-linejoin:round;stroke-miterlimit:4;stroke-dasharray:none;stroke-opacity:1;stop-color:#000000"
     id="rect886"
     width="69"
     height="69"
     x="20"
     y="100.5" />
  <rect
     style="fill:none;fill-opacity:1;fill-rule:evenodd;stroke:#000000;stroke-width:2.3;stroke-linecap:round;stroke-linejoin:round;stroke-miterlimit:4;stroke-dasharray:none;stroke-opacity:1;stop-color:#000000"
     id="rect888"
     width="69"
     height="69"
     x="100.5"
     y="100.5" />
  <rect
     style="fill:none;fill-opacity:1;fill-rule:evenodd;stroke:#000000;stroke-width:2.3;stroke-linecap:round;stroke-linejoin:round;stroke-miterlimit:4;stroke-dasharray:none;stroke-opacity:1;stop-color:#000000"
     id="rect890"
     width="69"
     height="69"
     x="181"
     y="100.5" />
  <rect
     style="fill:none;fill-opacity:1;fill-rule:evenodd;stroke:#000000;stroke-width:2.3;stroke-linecap:round;stroke-linejoin:round;stroke-miterlimit:4;stroke-dasharray:none;stroke-opacity:1;stop-color:#000000"
     id="rect892"
     width="69"
     height="69"
     x="20"
     y="181" />
  <rect
     style="fill:none;fill-opacity:1;fill-rule:evenodd;stroke:#000000;stroke-width:2.3;stroke-linecap:round;stroke-linejoin:round;stroke-miterlimit:4;stroke-dasharray:none;stroke-opacity:1;stop-color:#000000"
     id="rect894"
     width="69"
     height="69"
     x="100.5"
     y="181" />
  <rect
     style="fill:none;fill-opacity:1;fill-rule:evenodd;stroke:#000000;stroke-width:2.3;stroke-linecap:round;stroke-linejoin:round;stroke-miterlimit:4;stroke-dasharray:none;stroke-opacity:1;stop-color:#000000"
     id="rect896"
     width="69"
     height="69"
     x="181"
     y="181" />
  <g
     aria-label="DEL"
     id="text900"
     style="font-size:26.6667px;line-height:1.25;font-family:sans-serif"
     transform="matrix(1.15,0,0,1.15,-8.7650075,7.886084)">
    <path
       d="m 174.14063,187.47396 h 4.28386 q 2.09636,0 3.24219,-1.08074 1.15886,-1.09375 1.15886,-3.07292 v -5.57292 q 0,-1.97917 -1.15886,-3.0599 -1.14583,-1.09375 -3.24219,-1.09375 h -4.28386 v -2.52605 h 4.20573 q 2.27865,0 3.89324,0.79428 1.61458,0.79427 2.46094,2.31771 0.84635,1.52344 0.84635,3.67188 v 5.36459 q 0,2.14844 -0.84635,3.67188 -0.84636,1.52344 -2.47396,2.31771 Q 180.61199,190 178.33334,190 h -4.19271 z m -1.79688,-16.40628 h 2.65626 V 190 h -2.65626 z"
       style="font-style:normal;font-variant:normal;font-weight:normal;font-stretch:normal;font-size:26.6667px;font-family:Bahnschrift;-inkscape-font-specification:Bahnschrift;fill:#000000;fill-opacity:1"
       id="path902" />
    <path
       d="m 189.58336,171.06768 h 2.65625 V 190 h -2.65625 z m 1.28906,16.40628 h 10.87241 V 190 h -10.87241 z m 0,-8.13804 h 9.44012 v 2.52605 h -9.44012 z m 0,-8.26824 h 10.87241 v 2.52605 h -10.87241 z"
       style="font-style:normal;font-variant:normal;font-weight:normal;font-stretch:normal;font-size:26.6667px;font-family:Bahnschrift;-inkscape-font-specification:Bahnschrift;fill:#000000;fill-opacity:1"
       id="path904" />
    <path
       d="m 205.52088,171.06768 h 2.65625 V 190 h -2.65625 z m 1.32812,16.40628 h 10.83335 V 190 H 206.849 Z"
       style="font-style:normal;font-variant:normal;font-weight:normal;font-stretch:normal;font-size:26.6667px;font-family:Bahnschrift;-inkscape-font-specification:Bahnschrift;fill:#000000;fill-opacity:1"
       id="path906" />
  </g>
  <path
     style="fill:#c8c8c8;fill-opacity:1;fill-rule:evenodd;stroke:#000000;stroke-width:2.191;stroke-linecap:butt;stroke-linejoin:miter;stroke-miterlimit:4;stroke-dasharray:none;stroke-opacity:1;stop-color:#000000"
     d="m 298.29,76 -30,60 h 60 z"
     id="path932" />
  <path
     style="fill:#c8c8c8;fill-opacity:1;fill-rule:evenodd;stroke:#000000;stroke-width:2.191;stroke-linecap:butt;stroke-linejoin:miter;stroke-miterlimit:4;stroke-dasharray:none;stroke-opacity:1;stop-color:#000000"
     d="m 298.29,204.64589 30,-60 h -60 z"
     id="path934" />
  <g
     id="g942"
     transform="translate(3.95942,-10)">
    <path
       style="fill:#c8c8c8;fill-opacity:1;fill-rule:evenodd;stroke:#000000;stroke-width:1.07078;stroke-linecap:butt;stroke-linejoin:miter;stroke-miterlimit:4;stroke-dasharray:none;stroke-opacity:1;stop-color:#000000"
       d="m 260,240 29.32294,14.66147 v -29.32294 z"
       id="path936" />
    <path
       style="fill:#c8c8c8;fill-opacity:1;fill-rule:evenodd;stroke:#000000;stroke-width:1.07078;stroke-linecap:butt;stroke-linejoin:miter;stroke-miterlimit:4;stroke-dasharray:none;stroke-opacity:1;stop-color:#000000"
       d="m 328.66116,240 -29.32294,-14.66147 v 29.32294 z"
       id="path938" />
  </g>
  <rect
     style="fill:none;fill-opacity:1;fill-rule:evenodd;stroke:#000000;stroke-width:1.66667;stroke-linecap:round;stroke-linejoin:round;stroke-miterlimit:4;stroke-dasharray:none;stroke-opacity:1;stop-color:#000000"
     id="rect965"
     width="50"
     height="50"
     x="28.535"
     y="260" />
  <rect
     style="fill:none;fill-opacity:1;fill-rule:evenodd;stroke:#000000;stroke-width:1.66667;stroke-linecap:round;stroke-linejoin:round;stroke-miterlimit:4;stroke-dasharray:none;stroke-opacity:1;stop-color:#000000"
     id="rect967"
     width="50"
     height="50"
     x="88.535004"
     y="260" />
  <rect
     style="fill:none;fill-opacity:1;fill-rule:evenodd;stroke:#000000;stroke-width:1.66667;stroke-linecap:round;stroke-linejoin:round;stroke-miterlimit:4;stroke-dasharray:none;stroke-opacity:1;stop-color:#000000"
     id="rect969"
     width="50"
     height="50"
     x="148.535"
     y="260" />
  <rect
     style="fill:none;fill-opacity:1;fill-rule:evenodd;stroke:#000000;stroke-width:1.66667;stroke-linecap:round;stroke-linejoin:round;stroke-miterlimit:4;stroke-dasharray:none;stroke-opacity:1;stop-color:#000000"
     id="rect971"
     width="50"
     height="50"
     x="208.535"
     y="260" />
  <rect
     style="fill:none;fill-opacity:1;fill-rule:evenodd;stroke:#000000;stroke-width:1.66667;stroke-linecap:round;stroke-linejoin:round;stroke-miterlimit:4;stroke-dasharray:none;stroke-opacity:1;stop-color:#000000"
     id="rect973"
     width="50"
     height="50"
     x="268.535"
     y="260" />
  <rect
     style="fill:#000000;fill-opacity:1;fill-rule:evenodd;stroke:none;stroke-width:2.82857;stroke-linecap:butt;stroke-linejoin:miter;stroke-miterlimit:4;stroke-dasharray:none;stroke-opacity:1;stop-color:#000000"
     id="rect975"
     width="50"
     height="10"
     x="28.535"
     y="320" />
  <rect
     style="fill:#000000;fill-opacity:1;fill-rule:evenodd;stroke:none;stroke-width:2.82857;stroke-linecap:butt;stroke-linejoin:miter;stroke-miterlimit:4;stroke-dasharray:none;stroke-opacity:1;stop-color:#000000"
     id="rect983"
     width="50"
     height="10"
     x="88.535004"
     y="320" />
  <rect
     style="fill:#000000;fill-opacity:1;fill-rule:evenodd;stroke:none;stroke-width:2.82857;stroke-linecap:butt;stroke-linejoin:miter;stroke-miterlimit:4;stroke-dasharray:none;stroke-opacity:1;stop-color:#000000"
     id="rect985"
     width="50"
     height="10"
     x="148.535"
     y="320" />
  <rect
     style="fill:#000000;fill-opacity:1;fill-rule:evenodd;stroke:none;stroke-width:2.82857;stroke-linecap:butt;stroke-linejoin:miter;stroke-miterlimit:4;stroke-dasharray:none;stroke-opacity:1;stop-color:#000000"
     id="rect987"
     width="50"
     height="10"
     x="208.535"
     y="320" />
  <rect
     style="fill:#000000;fill-opacity:1;fill-rule:evenodd;stroke:none;stroke-width:2.82857;stroke-linecap:butt;stroke-linejoin:miter;stroke-miterlimit:4;stroke-dasharray:none;stroke-opacity:1;stop-color:#000000"
     id="rect989"
     width="50"
     height="10"
     x="268.535"
     y="320" />
</svg>
